<?xml version="1.0" encoding="UTF-8"?>
<svg width="15px" height="15px" viewBox="0 0 15 15" version="1.1" xmlns="http://www.w3.org/2000/svg" xmlns:xlink="http://www.w3.org/1999/xlink">
    <!-- Generator: Sketch 52.6 (67491) - http://www.bohemiancoding.com/sketch -->
    <title>Close</title>
    <desc>Created with Sketch.</desc>
    <g id="Page-1" stroke="none" stroke-width="1" fill="none" fill-rule="evenodd">
        <g id="Compose-Reply" transform="translate(-40.000000, -270.000000)" fill="#1DA1F2">
            <g id="Group-9" transform="translate(24.000000, 254.000000)">
                <path d="M24.9142465,23.4999376 L30.7074878,17.7068893 C31.0975041,17.3168861 31.0975041,16.6838808 30.7074878,16.2928776 C30.3174716,15.9018743 29.6844452,15.9028743 29.2934289,16.2928776 L23.5001876,22.0859258 L17.7069462,16.2928776 C17.31693,15.9028743 16.6839036,15.9028743 16.2928873,16.2928776 C15.901871,16.6828808 15.9028711,17.3158861 16.2928873,17.7068893 L22.0861287,23.4999376 L16.2928873,29.2929858 C15.9028711,29.682989 15.9028711,30.3159943 16.2928873,30.7069976 C16.4878954,30.9019992 16.7429061,31 16.9999168,31 C17.2569275,31 17.5119381,30.9019992 17.7069462,30.7069976 L23.5001876,24.9139493 L29.2934289,30.7069976 C29.488437,30.9019992 29.7434477,31 30.0004584,31 C30.2574691,31 30.5124797,30.9019992 30.7074878,30.7069976 C31.0975041,30.3169943 31.0975041,29.683989 30.7074878,29.2929858 L24.9142465,23.4999376 Z" id="Close"></path>
            </g>
        </g>
    </g>
</svg>