<?xml version="1.0" encoding="UTF-8"?>
<svg width="22px" height="20px" viewBox="0 0 22 20" version="1.1" xmlns="http://www.w3.org/2000/svg" xmlns:xlink="http://www.w3.org/1999/xlink">
    <!-- Generator: Sketch 52.6 (67491) - http://www.bohemiancoding.com/sketch -->
    <title>compose-solid</title>
    <desc>Created with Sketch.</desc>
    <g id="Page-1" stroke="none" stroke-width="1" fill="none" fill-rule="evenodd">
        <g id="Timeline" transform="translate(-360.000000, -681.000000)" fill="#1DA1F2" fill-rule="nonzero">
            <g id="Compose" transform="translate(346.000000, 666.000000)">
                <path d="M35.2757437,15 L35.1918984,15 C35.1359946,15 34.9718045,15.0279246 34.6993073,15.0837759 C34.4268101,15.1396272 34.0005972,15.2583083 33.4206666,15.4398235 C32.8407359,15.6213386 32.2188847,15.858703 31.5551088,16.1519186 C30.8913328,16.4451343 30.1437136,16.8640138 29.3122471,17.4085571 C28.4807806,17.9531005 27.6737696,18.5744391 26.8912142,19.2725709 C26.1086588,19.9707027 25.3086342,20.8573323 24.4911426,21.9324557 C23.673651,23.007579 22.9504853,24.1804416 22.3216456,25.4510435 C21.6788309,26.7356066 21.1338365,27.9084691 20.6866623,28.9696312 C20.2394881,30.0307933 19.9180797,30.8790243 19.7224414,31.5143242 C19.5268031,32.1496247 19.3905545,32.6871868 19.3136956,33.1270102 C19.2368367,33.5668337 19.208889,33.8705214 19.2298503,34.0380732 C19.2508116,34.205625 19.2962285,34.2894009 19.3660989,34.2894009 C19.4080216,34.3033636 19.4953611,34.205625 19.6281155,33.9961852 C19.7608698,33.7867455 19.9390411,33.4970205 20.1626292,33.1270102 C20.3862174,32.757 20.634259,32.3381205 20.9067562,31.8703718 C21.1792534,31.4026231 21.4936733,30.8964769 21.8500158,30.3519336 C22.2063583,29.8073902 22.5661951,29.2837909 22.929524,28.7811355 C23.2928529,28.2784801 23.6876259,27.7828053 24.1138388,27.2941132 C24.5400517,26.8054212 24.955786,26.400503 25.3610375,26.0793627 C26.2274382,25.8978476 27.0239685,25.6569918 27.7506285,25.3567956 C28.4772884,25.0565993 29.0432441,24.7773449 29.4484957,24.5190366 C29.8537473,24.2607283 30.2100898,23.9849652 30.5175232,23.6917496 C30.8249567,23.3985339 31.0171007,23.1995662 31.0939596,23.0948463 C31.1708185,22.9901264 31.2232218,22.9098419 31.2511696,22.8539906 L29.3856117,23.0424863 C28.9524103,23.0424863 28.4423522,22.9517298 27.8554351,22.7702147 C28.7358107,21.9743436 29.7768905,21.4716882 30.9786723,21.2622485 C32.0407135,21.0109208 32.9350619,20.6478926 33.6617218,20.1731618 C34.0250507,19.9078707 34.3324842,19.5553145 34.5840201,19.1154911 C34.8355559,18.6756676 35.0102267,18.2428247 35.1080532,17.8169646 C35.2058797,17.3911045 35.2722432,16.972225 35.3071857,16.5603261 C35.3421283,16.1484273 35.3526089,15.8098344 35.3386277,15.5445433 C35.3246465,15.2792523 35.3036852,15.1256638 35.2757437,15.0837759 L35.2757437,15 Z M19.0097564,19.4610666 L19.0097564,16.5079662 C19.0097564,16.326451 18.9433782,16.1623906 18.8106238,16.0157828 C18.6778695,15.869175 18.5066846,15.795871 18.2970714,15.795871 C17.8778449,15.795871 17.6682317,16.0332354 17.6682317,16.5079662 L17.6682317,19.4610666 L14.712685,19.4610666 C14.5310201,19.4610666 14.3668232,19.5273899 14.2200939,19.6600344 C14.0733646,19.7926789 14,19.963722 14,20.1731618 C14,20.6478926 14.2375616,20.8852569 14.712685,20.8852569 L17.6682317,20.8852569 L17.6682317,23.8383574 C17.6682317,24.0198725 17.7346099,24.183933 17.8673643,24.3305408 C18.0001186,24.4771486 18.1713035,24.5504525 18.3809167,24.5504525 C18.8560407,24.5504525 19.0936017,24.3130882 19.0936017,23.8383574 L19.0936017,20.801481 L22.0491484,20.801481 C22.2308139,20.801481 22.3950102,20.7351578 22.5417395,20.6025133 C22.6884687,20.4698688 22.7618334,20.2988256 22.7618334,20.0893859 C22.7618334,19.6705064 22.4613884,19.4610666 21.8604965,19.4610666 L19.0097564,19.4610666 Z" id="compose-solid"></path>
            </g>
        </g>
    </g>
</svg>