<?xml version="1.0" encoding="UTF-8"?>
<svg width="19px" height="17px" viewBox="0 0 19 17" version="1.1" xmlns="http://www.w3.org/2000/svg" xmlns:xlink="http://www.w3.org/1999/xlink">
    <!-- Generator: Sketch 52.6 (67491) - http://www.bohemiancoding.com/sketch -->
    <title>dm-solid</title>
    <desc>Created with Sketch.</desc>
    <g id="Page-1" stroke="none" stroke-width="1" fill="none" fill-rule="evenodd">
        <g id="Timeline" transform="translate(-349.000000, -158.000000)" fill="#94D6FF" fill-rule="nonzero">
            <g id="Karen-Shin" transform="translate(19.000000, 65.000000)">
                <g id="Group-7" transform="translate(137.000000, 92.000000)">
                    <path d="M193,3.16502357 L201.658433,8.8273929 C201.927241,9.02168919 202.196047,9.02168919 202.464855,8.8273929 L211.123288,3.1858411 L211.123288,2.99848329 C211.123288,2.44334835 210.92522,1.97148563 210.529082,1.58289096 C210.132943,1.19429629 209.651921,1 209.086009,1 L195.037278,1 C194.471367,1 193.990344,1.19429629 193.594206,1.58289096 C193.198069,1.97148563 193,2.44334835 193,2.99848329 L193,3.16502357 Z M211.123288,4.74715618 L203.207613,9.90990469 C202.839772,10.145836 202.457782,10.2638028 202.061644,10.2638028 C201.665506,10.2638028 201.283516,10.145836 200.915675,9.90990469 L193,4.72633864 L193,15.0934707 C193,15.6486057 193.198069,16.120469 193.594206,16.5090631 C193.990344,16.8976571 194.471367,17.091954 195.037278,17.091954 L209.086009,17.091954 C209.651921,17.091954 210.132943,16.8976571 210.529082,16.5090631 C210.92522,16.120469 211.123288,15.6486057 211.123288,15.0934707 L211.123288,4.74715618 Z" id="dm-solid"></path>
                </g>
            </g>
        </g>
    </g>
</svg>