<?xml version="1.0" encoding="UTF-8"?>
<svg width="19px" height="18px" viewBox="0 0 19 18" version="1.1" xmlns="http://www.w3.org/2000/svg" xmlns:xlink="http://www.w3.org/1999/xlink">
    <!-- Generator: Sketch 52.6 (67491) - http://www.bohemiancoding.com/sketch -->
    <title>heart-solid</title>
    <desc>Created with Sketch.</desc>
    <g id="Page-1" stroke="none" stroke-width="1" fill="none" fill-rule="evenodd">
        <g id="Timeline" transform="translate(-280.000000, -592.000000)" fill="#94D6FF">
            <g id="Karen-Shin" transform="translate(19.000000, 523.000000)">
                <g id="Group-7" transform="translate(137.000000, 68.000000)">
                    <g id="Group-6" transform="translate(124.000000, 1.000000)">
                        <path d="M9.91345222,17.0574713 C9.32270477,17.0433799 8.52449315,16.6805301 7.51881525,15.9689214 C6.51313735,15.257312 5.51801062,14.3625176 4.53343085,13.2845362 C3.54885107,12.2065547 2.69437709,10.9277728 1.9700089,9.4481904 C1.24564072,7.96860801 0.883455568,6.5524363 0.883455568,5.19967526 C0.883455568,3.8187324 1.37222945,2.60688255 2.34977512,1.56412995 C3.32732078,0.521377356 4.46310447,5.68434189e-14 5.75712198,5.68434189e-14 C7.36057933,5.68434189e-14 8.75305545,0.82433876 9.93455034,2.47301628 C11.1160452,0.82433876 12.5085213,5.68434189e-14 14.1119787,5.68434189e-14 C15.4059962,5.68434189e-14 16.5417799,0.521377356 17.5193256,1.56412995 C18.4968712,2.60688255 18.9856451,3.8187324 18.9856451,5.19967526 C18.9856451,6.5524363 18.62346,7.96860801 17.8990918,9.4481904 C17.1747236,10.9277728 16.3202496,12.2065547 15.3356698,13.2845362 C14.3510901,14.3625176 13.3524463,15.257312 12.3397364,15.9689214 C11.3270265,16.6805301 10.5252978,17.0433799 9.93455034,17.0574713 L9.91345222,17.0574713 Z" id="heart-solid"></path>
                    </g>
                </g>
            </g>
        </g>
    </g>
</svg>