<?xml version="1.0" encoding="UTF-8"?>
<svg width="30px" height="24px" viewBox="0 0 30 24" version="1.1" xmlns="http://www.w3.org/2000/svg" xmlns:xlink="http://www.w3.org/1999/xlink">
    <!-- Generator: Sketch 52.6 (67491) - http://www.bohemiancoding.com/sketch -->
    <title>Logo</title>
    <desc>Created with Sketch.</desc>
    <g id="Page-1" stroke="none" stroke-width="1" fill="none" fill-rule="evenodd">
        <g id="Timeline" transform="translate(-16.000000, -16.000000)" fill="#FFFFFF">
            <path d="M25.4237695,39.8905775 C36.7442977,39.8905775 42.9387755,30.6964675 42.9387755,22.7368607 C42.9387755,22.4782029 42.9387755,22.219545 42.9267707,21.9608872 C44.1272509,21.1143707 45.1716687,20.0444678 46,18.8334789 C44.8955582,19.3155231 43.7070828,19.6329668 42.4585834,19.78581 C43.7310924,19.0451081 44.7034814,17.8576335 45.1716687,16.4467726 C43.9831933,17.1404459 42.6626651,17.6342472 41.2581032,17.9046622 C40.1296519,16.7289448 38.5330132,16 36.7683073,16 C33.3709484,16 30.6098439,18.70415 30.6098439,22.0314302 C30.6098439,22.5017172 30.6698679,22.960247 30.7659064,23.4070196 C25.6518607,23.1601189 21.1140456,20.7498983 18.0768307,17.1051744 C17.5486194,17.9987196 17.2484994,19.0333509 17.2484994,20.1385252 C17.2484994,22.2313022 18.3409364,24.0771785 19.9855942,25.1588385 C18.9771909,25.123567 18.0288115,24.853152 17.2004802,24.4063794 C17.2004802,24.4298937 17.2004802,24.4534081 17.2004802,24.4886796 C17.2004802,27.4044588 19.3253301,29.8499509 22.1344538,30.4025381 C21.6182473,30.5436242 21.0780312,30.6141672 20.5138055,30.6141672 C20.1176471,30.6141672 19.7334934,30.5788957 19.3613445,30.5083527 C20.1416567,32.9068162 22.422569,34.6468779 25.1116447,34.6939066 C22.9987995,36.3163966 20.3457383,37.2804849 17.4645858,37.2804849 C16.972389,37.2804849 16.4801921,37.2569705 16,37.1981847 C18.7130852,38.8912177 21.9543818,39.8905775 25.4237695,39.8905775" id="Logo"></path>
        </g>
    </g>
</svg>