<?xml version="1.0" encoding="UTF-8"?>
<svg width="18px" height="19px" viewBox="0 0 18 19" version="1.1" xmlns="http://www.w3.org/2000/svg" xmlns:xlink="http://www.w3.org/1999/xlink">
    <!-- Generator: Sketch 52.6 (67491) - http://www.bohemiancoding.com/sketch -->
    <title>reply-solid</title>
    <desc>Created with Sketch.</desc>
    <g id="Page-1" stroke="none" stroke-width="1" fill="none" fill-rule="evenodd">
        <g id="Timeline" transform="translate(-156.000000, -157.000000)" fill="#94D6FF">
            <g id="Karen-Shin" transform="translate(19.000000, 65.000000)">
                <g id="Group-7" transform="translate(137.000000, 92.000000)">
                    <g id="Group-4">
                        <path d="M7.02285066,0.542034753 C5.05448481,0.542034753 3.39191666,1.22926417 2.03515042,2.60372088 C0.678384175,3.97817759 -5.32907052e-14,5.66242346 -5.32907052e-14,7.65645424 C-5.32907052e-14,9.52229728 0.639718426,11.0925971 1.91915739,12.3673536 C3.19859635,13.6421102 4.80140911,14.3150958 6.72759568,14.3863105 L6.72759568,17.8687441 C6.72759568,17.9969318 6.76274578,18.1179981 6.83304388,18.2319427 C6.95958173,18.4455889 7.14938851,18.552412 7.40246421,18.552412 C7.52900206,18.552412 7.64851073,18.5168042 7.76098812,18.4455889 C11.5430631,16.0100219 13.9683719,14.3364604 15.0369145,13.4249025 C15.8945606,12.6842615 16.5659135,11.8083119 17.0509753,10.7970538 C17.536037,9.78579572 17.7785679,8.74605002 17.7785679,7.67781886 L17.7785679,7.65645424 C17.7785679,5.66242346 17.1001837,3.98173907 15.7434175,2.61440319 C14.3866512,1.24706731 12.7240831,0.563399376 10.7557172,0.563399376 L7.02285066,0.542034753 Z" id="reply-solid"></path>
                    </g>
                </g>
            </g>
        </g>
    </g>
</svg>