<?xml version="1.0" encoding="UTF-8"?>
<svg width="22px" height="17px" viewBox="0 0 22 17" version="1.1" xmlns="http://www.w3.org/2000/svg" xmlns:xlink="http://www.w3.org/1999/xlink">
    <!-- Generator: Sketch 52.6 (67491) - http://www.bohemiancoding.com/sketch -->
    <title>retweet-solid</title>
    <desc>Created with Sketch.</desc>
    <g id="Page-1" stroke="none" stroke-width="1" fill="none" fill-rule="evenodd">
        <g id="Timeline" transform="translate(-216.000000, -158.000000)" fill="#94D6FF" fill-rule="nonzero">
            <g id="Karen-Shin" transform="translate(19.000000, 65.000000)">
                <g id="Group-7" transform="translate(137.000000, 92.000000)">
                    <g id="Group-5" transform="translate(60.000000, 1.000000)">
                        <path d="M6.63425963,14.1045385 C6.25273671,14.1045385 5.92420309,13.9709174 5.64865876,13.703673 C5.37311443,13.4364287 5.23534226,13.1058918 5.23534226,12.7120584 L5.23534226,4.2516864 L6.44349817,5.45428291 C6.65545535,5.66526476 6.90980396,5.77075568 7.20654401,5.77075568 C7.50328405,5.77075568 7.75763267,5.66526476 7.96958984,5.45428291 C8.18154702,5.24330107 8.28752561,4.98660579 8.28752561,4.68419918 C8.28752561,4.38179257 8.18154702,4.12509729 7.96958984,3.91411545 L4.9174065,0.875976884 C4.70544932,0.66499504 4.44756738,0.559504117 4.1437628,0.559504117 C3.83995822,0.559504117 3.58914082,0.66499504 3.39131482,0.875976884 L0.339131482,3.91411545 C0.113043821,4.12509729 -1.95399252e-14,4.38179257 -1.95399252e-14,4.68419918 C-1.95399252e-14,4.98660579 0.113043821,5.24330107 0.339131482,5.45428291 C0.551088659,5.66526476 0.805437271,5.77075568 1.10217732,5.77075568 C1.39891737,5.77075568 1.65326598,5.66526476 1.86522315,5.45428291 L3.05218334,4.2516864 L3.05218334,12.7120584 C3.05218334,13.696641 3.40191268,14.5370513 4.10137137,15.2332914 C4.80083005,15.9295315 5.64512543,16.2776515 6.63425963,16.2776515 L11.339709,16.2776515 C11.636449,16.2776515 11.8907976,16.1721606 12.1027548,15.9611788 C12.314712,15.7501969 12.4206906,15.4970187 12.4206906,15.2016441 C12.4206906,14.8922034 12.314712,14.6319932 12.1027548,14.4210113 C11.8907976,14.2100295 11.636449,14.1045385 11.339709,14.1045385 L6.63425963,14.1045385 Z M21.3440877,11.3828727 C21.1179993,11.1718909 20.8565862,11.0664 20.5598461,11.0664 C20.2631061,11.0664 20.0087575,11.1718909 19.7968003,11.3828727 L18.6098401,12.5854693 L18.6098401,4.12509729 C18.6098401,3.14051465 18.2601108,2.30010434 17.5606521,1.60386425 C16.8611934,0.907624161 16.016898,0.559504117 15.0277638,0.559504117 L10.3223145,0.559504117 C10.0255745,0.559504117 9.77122584,0.66499504 9.55926867,0.875976884 C9.34731149,1.08695873 9.2413329,1.34013694 9.2413329,1.63551152 C9.2413329,1.94495227 9.34731149,2.20516251 9.55926867,2.41614435 C9.77122584,2.62712619 10.0255745,2.73261712 10.3223145,2.73261712 L15.0277638,2.73261712 C15.4092867,2.73261712 15.7378204,2.86623825 16.0133647,3.13348262 C16.288909,3.40072699 16.4266812,3.73126381 16.4266812,4.12509729 L16.4266812,12.5854693 L15.239721,11.3828727 C15.0277638,11.1718909 14.7698819,11.0664 14.4660773,11.0664 C14.1622727,11.0664 13.9043908,11.1718909 13.6924336,11.3828727 C13.4804764,11.5938546 13.3744978,11.8505499 13.3744978,12.1529565 C13.3744978,12.4553631 13.4804764,12.7120584 13.6924336,12.9230402 L16.744617,15.9611788 C16.9565741,16.1721606 17.2109227,16.2776515 17.5076628,16.2776515 C17.818534,16.2776515 18.0799472,16.1721606 18.2919043,15.9611788 L21.3440877,12.9230402 C21.5560449,12.7120584 21.6620235,12.4553631 21.6620235,12.1529565 C21.6620235,11.8505499 21.5560449,11.5938546 21.3440877,11.3828727 Z" id="retweet-solid"></path>
                    </g>
                </g>
            </g>
        </g>
    </g>
</svg>